Coordinates
nRows=5
nColumns=24

# SIMM Motion File Header:
name Coordinates
datacolumns 24
datarows 5
otherdata 1
range 0.83000000000000007000 0.83400000000000007000
endheader
time	pelvis_tx	pelvis_ty	pelvis_tz	pelvis_tilt	pelvis_list	pelvis_rotation	hip_flexion_r	hip_adduction_r	hip_rotation_r	knee_angle_r	ankle_angle_r	subtalar_angle_r	mtp_angle_r	hip_flexion_l	hip_adduction_l	hip_rotation_l	knee_angle_l	ankle_angle_l	subtalar_angle_l	mtp_angle_l	lumbar_extension	lumbar_bending	lumbar_rotation
      0.83000000000000007000	      0.60514815618081463000	      1.02187034040052250000	      0.02392474980068306000	      4.62474715657167400000	     -1.00692733327640860000	      3.46562923881992460000	     14.40229337416116300000	      0.39962304204023380000	     -7.15225709340255470000	    -23.03705367775907900000	      4.20143083717481240000	      0.00794891112525991820	      0.05862247178363818500	     -1.18841334185965390000	     -4.11106531672117370000	     -1.13957173054884820000	    -59.68410538616310400000	     -5.76180258940345610000	     -0.00379819455855293650	     -0.09007278377447930400	    -15.08866081391683700000	      4.45095931748473820000	     -5.24716598646542210000
      0.83100000000000007000	      0.60512278952666987000	      1.02204453209380010000	      0.02414367317377709400	      4.62796159617853500000	     -1.02855108936233860000	      3.46277553284003540000	     14.30393306841563500000	      0.44427012022739820000	     -7.15850217476299640000	    -22.99018049652537200000	      4.24315415313389630000	      0.02687318303538696600	      0.06140976967490623100	     -1.01108918995586690000	     -4.17303923610714470000	     -1.20287561019161030000	    -59.92767286280054900000	     -5.80443778534766870000	     -0.00755058459053105370	     -0.09203847008939930500	    -15.08865221145894400000	      4.46928254059923450000	     -5.21278906311248580000
      0.83200000000000007000	      0.60509662211350035000	      1.02221932191897680000	      0.02436187557073464900	      4.63113941970076050000	     -1.04981089933771780000	      3.45986099748739040000	     14.20527625333185100000	      0.48808585986304553000	     -7.16535856074846670000	    -22.94264400746115800000	      4.28557665331088880000	      0.06342070830351899400	      0.06441924560526776600	     -0.83430033717089702000	     -4.23441879731153570000	     -1.26600785429718800000	    -60.16843300827808600000	     -5.84371460582863020000	     -0.01492969879115575400	     -0.09577255867071553200	    -15.08865644126647300000	      4.48711065786647370000	     -5.17835618774780840000
      0.83300000000000007000	      0.60506936997765137000	      1.02239492010368440000	      0.02457910231781437100	      4.63426678913029470000	     -1.07057784942277220000	      3.45686388439260960000	     14.10621894009849200000	      0.53077667433621645000	     -7.17304131732239550000	    -22.89420986131810700000	      4.32896246316476850000	      0.12380853347570824000	      0.06769721538979889300	     -0.65823592974545275000	     -4.29499330412134130000	     -1.32890721839310990000	    -60.40538915519275100000	     -5.87844153662325210000	     -0.02721701411285461600	     -0.10189921476389183000	    -15.08867706278708100000	      4.50426803933817780000	     -5.14384736020685820000
      0.83400000000000007000	      0.60504211784180228000	      1.02257051828839200000	      0.02479632906489409200	      4.63739415855982880000	     -1.09134479950782690000	      3.45386677129782880000	     14.00716162686513200000	      0.57346748880938725000	     -7.18072407389632340000	    -22.84577571517505800000	      4.37234827301864740000	      0.18419635864789749000	      0.07097518517433000500	     -0.48217152232000854000	     -4.35556781093114690000	     -1.39180658248903180000	    -60.64234530210741500000	     -5.91316846741787390000	     -0.03950432943455348100	     -0.10802587085706812000	    -15.08869768430768900000	      4.52142542080988270000	     -5.10933853266590800000
